<?xml version="1.0" encoding="UTF-8"?>
<svg fill="#2b2b2c" width="100pt" height="100pt" version="1.1" viewBox="0 0 100 100" xmlns="http://www.w3.org/2000/svg">
 <path d="m86.2 61.6c-1.6-4.3-2.8-7.6.3-11.6.7-.9.5-2.1-.3-2.8-.9-.7-2.1-.5-2.8.3-4.6 5.8-2.6 11-.9 15.5 1.8 4.8 3.4 9-1.7 14.6-3.4 3.8-9 4.4-14.9 4.4.3-.4.6-.8.8-1.2 4.9-8.4 4.2-24.8 3.6-31.5 0-.4-.1-.9-.1-1.3h4.5c1.1 0 2-.9 2-2s-.9-2-2-2h-4.9c-.2-2-.5-3.9-.8-5.8h5.7c1.1 0 2-.9 2-2s-.9-2-2-2h-6.5c-1.6-7.6-3.8-14.1-6.4-18.8-.7-1.2-2-2-3.4-2h-.1c-1.4 0-2.6.7-3.4 1.8l-5.6 8.8h-10.1l-4.9-8.6c-.7-1.3-2-2-3.5-2h-.1c-1.5 0-2.8.9-3.5 2.2-2.3 4.6-4.2 11.1-5.6 18.6h-7.1c-1.1 0-2 .9-2 2s.9 2 2 2h6.4c-.3 1.9-.5 3.8-.7 5.8h-5.7c-1.1 0-2 .9-2 2s.9 2 2 2h5.3c-.1.8-.1 1.5-.2 2.3-.4 6.9-1 23.7 3.8 31.4 2.6 3.7 5.6 4.3 7.3 4.3h27.9c.3 0 .7 0 1.1-.1h2.3 3.5c6.7 0 13.6-.7 18.2-5.7 6.7-7.3 4.4-13.6 2.5-18.6zm-62.3-13.7h3.8c1.1 0 2-.9 2-2s-.9-2-2-2h-3.4c.2-1.9.5-3.9.8-5.8h2.6c1.1 0 2-.9 2-2s-.9-2-2-2h-1.9c1.2-6.6 3-12.5 5.1-16.8l6 10.7h14.6l6.8-10.7c2.4 4.3 4.4 10.2 5.8 16.8h-2.5c-1.1 0-2 .9-2 2s.9 2 2 2h3.3c.3 1.9.6 3.8.9 5.8h-4.1c-1.1 0-2 .9-2 2s.9 2 2 2h4.6c1.6 16.7-.3 32.9-6.9 34-.2 0-.4 0-.6 0s-.4 0-.5.1h-27.6c-6.3 0-8.2-16.8-6.8-34.1z"/><circle cx="38.4" cy="34.9" r="2"/><circle cx="49.9" cy="34.9" r="2"/>
</svg>
